<svg id="svg" version="1.1" xmlns="http://www.w3.org/2000/svg" xmlns:xlink="http://www.w3.org/1999/xlink" width="400" height="422.81879194630875" viewBox="0, 0, 400,422.81879194630875"><g id="svgg"><path id="path0" d="M284.000 37.456 C 284.000 38.444,282.769 39.180,281.200 39.131 L 279.800 39.086 281.400 38.800 C 282.773 38.554,282.588 38.505,280.100 38.457 C 277.764 38.411,277.200 38.517,277.200 39.000 C 277.200 39.486,276.556 39.600,273.800 39.600 C 270.736 39.600,270.400 39.675,270.400 40.354 C 270.400 40.989,270.118 41.098,268.597 41.047 C 267.192 40.999,266.746 41.142,266.570 41.693 C 266.447 42.082,266.013 42.400,265.606 42.400 C 264.498 42.400,263.575 42.836,263.826 43.242 C 264.027 43.567,263.466 43.768,262.700 43.647 C 262.535 43.621,262.400 43.780,262.400 44.000 C 262.400 44.220,262.209 44.400,261.976 44.400 C 261.743 44.400,261.673 44.206,261.819 43.969 C 261.991 43.691,261.682 43.585,260.943 43.669 C 260.254 43.748,259.799 44.038,259.797 44.400 C 259.795 44.798,259.394 45.000,258.604 45.000 C 257.790 45.000,257.371 45.221,257.278 45.700 C 257.180 46.204,256.757 46.400,255.771 46.400 C 254.819 46.400,254.400 46.583,254.400 47.000 C 254.400 47.330,254.130 47.600,253.800 47.600 C 253.470 47.600,253.200 47.851,253.200 48.157 C 253.200 48.769,252.359 49.200,251.167 49.200 C 250.745 49.200,250.400 49.470,250.400 49.800 C 250.400 50.130,250.130 50.400,249.800 50.400 C 249.470 50.400,249.200 50.670,249.200 51.000 C 249.200 51.546,248.252 51.805,246.900 51.630 C 246.625 51.594,246.400 51.933,246.400 52.382 C 246.400 52.947,246.139 53.200,245.557 53.200 C 244.972 53.200,244.785 53.384,244.945 53.800 C 245.122 54.262,244.856 54.400,243.787 54.400 C 242.674 54.400,242.400 54.556,242.400 55.187 C 242.400 55.723,242.208 55.901,241.800 55.745 C 241.384 55.585,241.200 55.772,241.200 56.357 C 241.200 56.933,240.947 57.200,240.400 57.200 C 239.956 57.200,239.600 57.467,239.600 57.800 C 239.600 58.130,239.330 58.400,239.000 58.400 C 238.667 58.400,238.400 58.756,238.400 59.200 C 238.400 59.640,238.265 59.979,238.100 59.953 C 237.284 59.824,236.780 60.045,237.017 60.427 C 237.162 60.662,236.903 60.953,236.440 61.074 C 235.978 61.194,235.600 61.542,235.600 61.847 C 235.600 62.151,235.330 62.400,235.000 62.400 C 234.657 62.400,234.400 62.760,234.400 63.243 C 234.400 63.837,234.218 64.016,233.785 63.850 C 233.413 63.707,233.066 63.888,232.906 64.307 C 232.762 64.688,232.138 65.445,231.522 65.989 C 230.799 66.626,230.400 67.374,230.400 68.089 C 230.400 68.820,230.190 69.200,229.787 69.200 C 229.451 69.200,229.071 69.470,228.945 69.800 C 228.818 70.130,228.464 70.400,228.157 70.400 C 227.791 70.400,227.600 70.863,227.600 71.753 C 227.600 72.792,227.405 73.158,226.760 73.326 C 226.298 73.447,226.026 73.718,226.155 73.928 C 226.285 74.137,226.022 74.406,225.571 74.524 C 225.120 74.641,224.783 74.977,224.823 75.269 C 224.989 76.497,224.763 77.200,224.200 77.200 C 223.785 77.200,223.600 77.617,223.600 78.553 C 223.600 79.525,223.395 79.960,222.873 80.097 C 222.338 80.237,222.169 80.620,222.234 81.552 C 222.302 82.533,222.173 82.793,221.661 82.709 C 221.179 82.629,220.966 82.952,220.875 83.900 C 220.797 84.705,220.531 85.200,220.175 85.200 C 219.785 85.200,219.600 85.650,219.600 86.600 C 219.600 87.852,219.321 88.180,218.355 88.066 C 218.221 88.050,218.179 88.855,218.262 89.854 C 218.392 91.409,218.297 91.702,217.607 91.882 C 216.937 92.058,216.800 92.424,216.800 94.047 C 216.800 95.566,216.659 96.000,216.163 96.000 C 215.656 96.000,215.547 96.386,215.629 97.900 C 215.794 100.954,215.667 101.711,215.033 101.468 C 214.073 101.100,214.021 101.945,214.020 117.819 L 214.018 133.227 214.984 133.594 C 215.891 133.939,215.939 134.109,215.759 136.381 C 215.601 138.376,215.675 138.800,216.184 138.800 C 216.657 138.800,216.800 139.265,216.800 140.800 C 216.800 142.269,216.952 142.800,217.373 142.800 C 218.067 142.800,218.370 143.754,218.231 145.500 C 218.150 146.533,218.280 146.800,218.864 146.800 C 219.438 146.800,219.600 147.107,219.600 148.200 C 219.600 149.178,219.781 149.600,220.200 149.600 C 220.619 149.600,220.800 150.022,220.800 151.000 C 220.800 152.109,220.958 152.400,221.560 152.400 C 222.157 152.400,222.302 152.658,222.237 153.600 C 222.192 154.260,222.299 154.822,222.477 154.850 C 222.655 154.878,223.022 154.923,223.292 154.950 C 223.580 154.979,223.769 155.541,223.746 156.300 C 223.721 157.151,223.897 157.600,224.254 157.600 C 224.611 157.600,224.800 158.084,224.800 159.000 C 224.800 160.133,224.952 160.400,225.600 160.400 C 226.040 160.400,226.355 160.621,226.300 160.891 C 226.245 161.160,226.568 161.438,227.018 161.508 C 227.698 161.613,227.808 161.867,227.674 163.017 C 227.549 164.088,227.658 164.400,228.156 164.400 C 228.510 164.400,228.800 164.670,228.800 165.000 C 228.800 165.333,229.156 165.600,229.600 165.600 C 230.133 165.600,230.400 165.867,230.400 166.400 C 230.400 166.844,230.667 167.200,231.000 167.200 C 231.330 167.200,231.600 167.470,231.600 167.800 C 231.600 168.130,231.870 168.400,232.200 168.400 C 232.530 168.400,232.800 168.670,232.800 169.000 C 232.800 169.333,233.156 169.600,233.600 169.600 C 234.133 169.600,234.400 169.867,234.400 170.400 C 234.400 170.844,234.667 171.200,235.000 171.200 C 235.330 171.200,235.600 171.470,235.600 171.800 C 235.600 172.130,235.849 172.400,236.153 172.400 C 236.458 172.400,236.801 172.761,236.916 173.202 C 237.056 173.736,237.338 173.922,237.763 173.759 C 238.221 173.583,238.400 173.751,238.400 174.357 C 238.400 174.840,238.657 175.200,239.000 175.200 C 239.330 175.200,239.600 175.470,239.600 175.800 C 239.600 176.133,239.956 176.400,240.400 176.400 C 240.933 176.400,241.200 176.667,241.200 177.200 C 241.200 177.644,241.467 178.000,241.800 178.000 C 242.130 178.000,242.400 178.270,242.400 178.600 C 242.400 178.930,242.670 179.200,243.000 179.200 C 243.330 179.200,243.600 179.491,243.600 179.847 C 243.600 180.307,243.842 180.430,244.440 180.274 C 245.130 180.093,245.241 180.199,245.065 180.871 C 244.914 181.451,245.076 181.747,245.626 181.891 C 246.052 182.002,246.400 182.342,246.400 182.647 C 246.400 183.012,246.875 183.200,247.800 183.200 C 248.778 183.200,249.200 183.381,249.200 183.800 C 249.200 184.130,249.470 184.400,249.800 184.400 C 250.133 184.400,250.400 184.756,250.400 185.200 C 250.400 185.848,250.667 186.000,251.800 186.000 C 252.778 186.000,253.200 186.181,253.200 186.600 C 253.200 186.930,253.470 187.200,253.800 187.200 C 254.130 187.200,254.400 187.470,254.400 187.800 C 254.400 188.253,254.889 188.400,256.400 188.400 C 258.133 188.400,258.400 188.507,258.400 189.200 C 258.400 189.848,258.667 190.000,259.800 190.000 C 260.795 190.000,261.200 190.178,261.200 190.618 C 261.200 190.957,261.425 191.206,261.700 191.170 C 262.897 191.015,264.029 191.230,263.817 191.572 C 263.516 192.060,264.290 192.518,265.667 192.669 C 266.542 192.765,266.720 192.657,266.524 192.146 C 266.320 191.614,266.427 191.631,267.139 192.240 C 267.612 192.646,268.000 193.208,268.000 193.489 C 268.000 193.836,268.643 194.000,270.000 194.000 C 271.575 194.000,272.000 194.137,272.000 194.647 C 272.000 195.192,272.403 195.268,274.583 195.129 C 276.943 194.978,277.176 195.035,277.283 195.782 C 277.412 196.682,277.434 196.688,281.300 196.754 C 283.429 196.790,284.000 196.929,284.000 197.408 C 284.000 197.936,285.242 198.012,293.409 197.985 C 299.234 197.965,302.729 197.809,302.584 197.574 C 302.229 197.000,303.060 196.838,307.000 196.714 C 310.309 196.609,310.610 196.532,310.720 195.761 C 310.828 195.007,311.041 194.941,312.820 195.112 C 314.558 195.279,314.800 195.210,314.800 194.551 C 314.800 193.900,315.061 193.818,316.763 193.936 C 318.381 194.048,318.751 193.949,318.864 193.372 C 318.968 192.837,319.424 192.662,320.800 192.630 C 322.279 192.596,322.621 192.446,322.716 191.788 C 322.808 191.148,323.109 191.001,324.216 191.053 C 325.165 191.097,325.600 190.942,325.600 190.559 C 325.600 190.161,326.131 190.000,327.437 190.000 C 328.921 190.000,329.314 189.850,329.478 189.222 C 329.615 188.699,330.093 188.405,330.941 188.322 C 331.688 188.250,332.159 187.997,332.100 187.700 C 332.045 187.425,332.360 187.200,332.800 187.200 C 333.240 187.200,333.600 186.941,333.600 186.625 C 333.600 186.269,334.095 186.003,334.900 185.925 C 335.851 185.834,336.185 185.612,336.144 185.100 C 336.102 184.560,336.399 184.400,337.444 184.400 C 338.383 184.400,338.800 184.215,338.800 183.800 C 338.800 183.467,339.156 183.200,339.600 183.200 C 340.044 183.200,340.400 182.933,340.400 182.600 C 340.400 182.270,340.670 182.000,341.000 182.000 C 341.359 182.000,341.600 181.631,341.600 181.080 C 341.600 180.265,341.759 180.179,343.000 180.324 C 344.088 180.451,344.400 180.344,344.400 179.844 C 344.400 179.490,344.649 179.200,344.953 179.200 C 345.258 179.200,345.606 178.822,345.726 178.360 C 345.847 177.897,346.138 177.638,346.373 177.783 C 346.623 177.938,346.800 177.705,346.800 177.224 C 346.800 176.667,347.059 176.400,347.600 176.400 C 348.044 176.400,348.400 176.133,348.400 175.800 C 348.400 175.470,348.670 175.200,349.000 175.200 C 349.338 175.200,349.600 174.842,349.600 174.382 C 349.600 173.826,349.823 173.602,350.300 173.682 C 350.777 173.763,350.963 173.577,350.882 173.100 C 350.802 172.623,351.026 172.400,351.582 172.400 C 352.042 172.400,352.400 172.138,352.400 171.800 C 352.400 171.470,352.691 171.200,353.047 171.200 C 353.496 171.200,353.630 170.956,353.484 170.400 C 353.317 169.760,353.472 169.600,354.261 169.600 C 354.858 169.600,355.143 169.432,354.983 169.173 C 354.838 168.938,355.097 168.647,355.560 168.526 C 356.205 168.358,356.400 167.992,356.400 166.953 C 356.400 166.017,356.585 165.600,357.000 165.600 C 357.330 165.600,357.600 165.330,357.600 165.000 C 357.600 164.667,357.956 164.400,358.400 164.400 C 358.840 164.400,359.200 164.149,359.200 163.843 C 359.200 163.536,359.470 163.182,359.800 163.055 C 360.151 162.921,360.400 162.321,360.400 161.613 C 360.400 160.801,360.599 160.400,361.000 160.400 C 361.330 160.400,361.600 160.151,361.600 159.847 C 361.600 159.542,361.982 159.193,362.449 159.071 C 363.137 158.891,363.264 158.617,363.118 157.625 C 362.976 156.653,363.084 156.400,363.645 156.400 C 364.173 156.400,364.383 156.020,364.476 154.900 C 364.553 153.962,364.787 153.437,365.100 153.500 C 365.424 153.565,365.600 153.107,365.600 152.200 C 365.600 151.067,365.752 150.800,366.400 150.800 C 367.022 150.800,367.200 150.533,367.200 149.600 C 367.200 148.837,367.404 148.400,367.761 148.400 C 368.177 148.400,368.307 147.879,368.261 146.400 C 368.210 144.738,368.318 144.399,368.900 144.400 C 369.471 144.400,369.600 144.040,369.600 142.447 C 369.600 140.804,369.733 140.459,370.432 140.276 C 371.008 140.125,371.241 139.771,371.188 139.129 C 370.974 136.530,371.218 134.800,371.800 134.800 C 372.286 134.800,372.400 134.161,372.400 131.447 C 372.400 128.389,372.473 128.074,373.230 127.876 C 373.949 127.688,373.997 127.542,373.590 126.781 C 373.246 126.139,373.243 125.979,373.578 126.186 C 373.917 126.396,374.021 123.972,373.979 116.807 C 373.923 107.452,373.895 107.136,373.100 106.841 C 372.351 106.564,372.286 106.243,372.366 103.216 C 372.442 100.343,372.369 99.926,371.827 100.134 C 371.210 100.371,370.951 98.584,371.184 95.700 C 371.238 95.033,371.043 94.800,370.429 94.800 C 369.569 94.800,369.461 94.454,369.590 92.100 C 369.642 91.153,369.490 90.800,369.031 90.800 C 368.542 90.800,368.400 90.358,368.400 88.843 C 368.400 87.472,368.220 86.817,367.800 86.655 C 367.449 86.521,367.200 85.921,367.200 85.213 C 367.200 84.267,367.024 84.000,366.400 84.000 C 365.747 84.000,365.600 83.733,365.600 82.553 C 365.600 81.363,365.474 81.140,364.887 81.293 C 364.287 81.450,364.200 81.266,364.333 80.125 C 364.449 79.133,364.345 78.801,363.946 78.885 C 363.577 78.963,363.360 78.513,363.276 77.500 C 363.179 76.325,362.984 76.000,362.376 76.000 C 361.681 76.000,361.414 75.578,361.553 74.700 C 361.579 74.535,361.375 74.445,361.100 74.500 C 360.801 74.560,360.550 74.078,360.475 73.300 C 360.381 72.332,360.155 72.000,359.587 72.000 C 359.061 72.000,358.899 71.807,359.065 71.376 C 359.224 70.959,359.021 70.678,358.452 70.529 C 357.879 70.380,357.600 69.990,357.600 69.341 C 357.600 68.810,357.330 68.271,357.000 68.145 C 356.670 68.018,356.400 67.729,356.400 67.503 C 356.400 67.001,354.507 65.200,353.979 65.200 C 353.771 65.200,353.600 64.846,353.600 64.413 C 353.600 63.877,353.408 63.699,353.000 63.855 C 352.584 64.015,352.400 63.828,352.400 63.243 C 352.400 62.753,352.144 62.400,351.787 62.400 C 351.451 62.400,351.071 62.130,350.945 61.800 C 350.818 61.470,350.464 61.200,350.157 61.200 C 349.851 61.200,349.600 60.846,349.600 60.413 C 349.600 59.877,349.408 59.699,349.000 59.855 C 348.584 60.015,348.400 59.828,348.400 59.243 C 348.400 58.667,348.147 58.400,347.600 58.400 C 347.156 58.400,346.800 58.133,346.800 57.800 C 346.800 57.470,346.530 57.200,346.200 57.200 C 345.870 57.200,345.600 56.861,345.600 56.447 C 345.600 56.018,345.238 55.599,344.760 55.474 C 344.297 55.353,344.038 55.062,344.183 54.827 C 344.351 54.555,343.931 54.400,343.024 54.400 C 342.025 54.400,341.600 54.221,341.600 53.800 C 341.600 53.470,341.330 53.200,341.000 53.200 C 340.670 53.200,340.400 52.926,340.400 52.590 C 340.400 52.255,339.939 51.805,339.376 51.591 C 338.813 51.377,338.463 51.021,338.600 50.801 C 338.747 50.562,338.273 50.400,337.424 50.400 C 336.563 50.400,336.040 50.219,336.100 49.942 C 336.155 49.691,335.615 49.325,334.900 49.131 C 334.183 48.936,333.600 48.513,333.600 48.189 C 333.600 47.865,333.240 47.600,332.800 47.600 C 332.360 47.600,332.045 47.375,332.100 47.100 C 332.160 46.801,331.678 46.550,330.900 46.475 C 330.095 46.397,329.600 46.131,329.600 45.775 C 329.600 45.178,329.223 45.061,327.700 45.184 C 327.033 45.238,326.800 45.043,326.800 44.429 C 326.800 43.748,326.549 43.600,325.400 43.600 C 324.422 43.600,324.000 43.419,324.000 43.000 C 324.000 42.547,323.511 42.400,322.000 42.400 C 320.362 42.400,320.000 42.273,319.999 41.700 C 319.998 41.172,319.652 40.993,318.588 40.970 C 317.631 40.949,317.342 41.057,317.689 41.307 C 318.047 41.565,317.980 41.604,317.467 41.438 C 317.064 41.307,316.569 41.200,316.367 41.200 C 316.165 41.200,316.000 40.840,316.000 40.400 C 316.000 39.682,315.733 39.600,313.400 39.600 C 311.356 39.600,310.800 39.472,310.800 39.000 C 310.800 38.507,310.094 38.400,306.847 38.400 C 303.230 38.400,302.876 38.332,302.684 37.600 C 302.389 36.472,284.000 36.330,284.000 37.456 M90.943 39.100 C 90.787 39.699,90.360 39.781,87.980 39.667 C 85.438 39.546,85.200 39.602,85.200 40.321 C 85.200 40.999,84.944 41.099,83.339 41.045 C 81.861 40.995,81.439 41.128,81.292 41.691 C 81.100 42.426,80.695 42.530,78.500 42.410 C 77.553 42.358,77.200 42.510,77.200 42.969 C 77.200 43.606,76.802 43.755,75.470 43.616 C 75.021 43.569,74.654 43.872,74.514 44.406 C 74.339 45.076,74.063 45.229,73.294 45.082 C 72.561 44.942,72.249 45.089,72.104 45.646 C 71.960 46.197,71.543 46.400,70.553 46.400 C 69.617 46.400,69.200 46.585,69.200 47.000 C 69.200 47.419,68.778 47.600,67.800 47.600 C 66.822 47.600,66.400 47.781,66.400 48.200 C 66.400 48.530,66.209 48.800,65.976 48.800 C 65.743 48.800,65.640 48.941,65.747 49.113 C 65.853 49.286,65.459 49.421,64.870 49.413 C 64.222 49.405,63.839 49.597,63.900 49.900 C 63.955 50.175,63.640 50.400,63.200 50.400 C 62.760 50.400,62.400 50.651,62.400 50.957 C 62.400 51.264,62.130 51.618,61.800 51.745 C 61.470 51.871,61.200 52.251,61.200 52.587 C 61.200 53.021,60.791 53.200,59.800 53.200 C 58.822 53.200,58.400 53.381,58.400 53.800 C 58.400 54.130,58.130 54.400,57.800 54.400 C 57.470 54.400,57.200 54.754,57.200 55.187 C 57.200 55.736,57.011 55.902,56.576 55.735 C 56.159 55.576,55.878 55.779,55.729 56.348 C 55.607 56.817,55.258 57.200,54.953 57.200 C 54.649 57.200,54.400 57.451,54.400 57.757 C 54.400 58.064,54.130 58.418,53.800 58.545 C 53.470 58.671,53.200 59.051,53.200 59.387 C 53.200 59.724,53.065 59.979,52.900 59.953 C 52.075 59.822,51.600 60.059,51.600 60.600 C 51.600 60.930,51.330 61.200,51.000 61.200 C 50.670 61.200,50.400 61.380,50.400 61.600 C 50.400 62.145,48.681 63.827,48.266 63.689 C 48.082 63.627,47.836 63.942,47.719 64.389 C 47.602 64.835,47.258 65.200,46.953 65.200 C 46.649 65.200,46.400 65.449,46.400 65.753 C 46.400 66.058,46.022 66.406,45.560 66.526 C 45.098 66.647,44.830 66.925,44.966 67.144 C 45.101 67.363,44.849 67.657,44.406 67.798 C 43.963 67.939,43.600 68.312,43.600 68.627 C 43.600 68.942,43.330 69.200,43.000 69.200 C 42.670 69.200,42.400 69.458,42.400 69.773 C 42.400 70.088,42.064 70.453,41.654 70.583 C 41.098 70.759,40.943 71.124,41.046 72.010 C 41.140 72.820,41.009 73.200,40.635 73.200 C 40.070 73.200,39.600 74.032,39.600 75.033 C 39.600 75.695,38.431 76.949,37.469 77.318 C 37.047 77.480,36.800 78.023,36.800 78.787 C 36.800 79.599,36.601 80.000,36.200 80.000 C 35.781 80.000,35.600 80.422,35.600 81.400 C 35.600 82.307,35.424 82.765,35.100 82.700 C 34.803 82.641,34.550 83.112,34.478 83.859 C 34.395 84.707,34.101 85.185,33.578 85.322 C 33.019 85.468,32.800 85.873,32.800 86.763 C 32.800 87.596,32.604 88.000,32.200 88.000 C 31.747 88.000,31.600 88.489,31.600 90.000 C 31.600 91.511,31.453 92.000,31.000 92.000 C 30.528 92.000,30.400 92.556,30.400 94.600 C 30.400 96.630,30.270 97.200,29.808 97.200 C 29.191 97.200,28.678 98.572,28.814 99.857 C 28.946 101.111,28.817 101.658,28.442 101.426 C 27.697 100.966,27.600 102.881,27.600 118.033 C 27.600 131.604,27.677 133.600,28.200 133.600 C 28.652 133.600,28.800 134.086,28.800 135.572 C 28.800 137.295,28.911 137.560,29.675 137.672 C 30.482 137.790,30.543 137.996,30.447 140.300 C 30.362 142.350,30.457 142.800,30.972 142.800 C 31.423 142.800,31.600 143.194,31.600 144.200 C 31.600 145.178,31.781 145.600,32.200 145.600 C 32.653 145.600,32.800 146.089,32.800 147.600 C 32.800 149.333,32.907 149.600,33.600 149.600 C 34.242 149.600,34.400 149.867,34.400 150.953 C 34.400 151.943,34.603 152.360,35.154 152.504 C 35.723 152.653,35.859 152.958,35.708 153.746 C 35.570 154.469,35.707 154.866,36.154 155.038 C 36.543 155.187,36.800 155.747,36.800 156.443 C 36.800 157.333,36.984 157.600,37.600 157.600 C 38.133 157.600,38.400 157.867,38.400 158.400 C 38.400 158.844,38.667 159.200,39.000 159.200 C 39.400 159.200,39.600 159.600,39.600 160.400 C 39.600 161.333,39.778 161.600,40.400 161.600 C 40.933 161.600,41.200 161.867,41.200 162.400 C 41.200 162.844,41.467 163.200,41.800 163.200 C 42.200 163.200,42.400 163.600,42.400 164.400 C 42.400 165.200,42.600 165.600,43.000 165.600 C 43.333 165.600,43.600 165.956,43.600 166.400 C 43.600 166.941,43.867 167.200,44.424 167.200 C 44.905 167.200,45.138 167.377,44.983 167.627 C 44.838 167.862,45.097 168.153,45.560 168.274 C 46.022 168.394,46.400 168.742,46.400 169.047 C 46.400 169.351,46.670 169.600,47.000 169.600 C 47.333 169.600,47.600 169.956,47.600 170.400 C 47.600 170.933,47.867 171.200,48.400 171.200 C 48.844 171.200,49.200 171.467,49.200 171.800 C 49.200 172.130,49.470 172.400,49.800 172.400 C 50.130 172.400,50.400 172.676,50.400 173.013 C 50.400 173.349,50.670 173.729,51.000 173.855 C 51.330 173.982,51.600 174.336,51.600 174.643 C 51.600 174.949,51.960 175.200,52.400 175.200 C 52.844 175.200,53.200 175.467,53.200 175.800 C 53.200 176.130,53.470 176.400,53.800 176.400 C 54.130 176.400,54.400 176.676,54.400 177.013 C 54.400 177.349,54.670 177.729,55.000 177.855 C 55.330 177.982,55.600 178.336,55.600 178.643 C 55.600 178.949,55.960 179.200,56.400 179.200 C 56.844 179.200,57.200 179.467,57.200 179.800 C 57.200 180.130,57.449 180.400,57.753 180.400 C 58.058 180.400,58.401 180.760,58.516 181.200 C 58.668 181.783,59.062 182.000,59.963 182.000 C 60.796 182.000,61.200 182.196,61.200 182.600 C 61.200 182.930,61.470 183.200,61.800 183.200 C 62.130 183.200,62.400 183.470,62.400 183.800 C 62.400 184.130,62.740 184.400,63.156 184.400 C 63.630 184.400,63.890 184.661,63.856 185.100 C 63.815 185.612,64.149 185.834,65.100 185.925 C 65.905 186.003,66.400 186.269,66.400 186.625 C 66.400 187.015,66.850 187.200,67.800 187.200 C 68.778 187.200,69.200 187.381,69.200 187.800 C 69.200 188.219,69.622 188.400,70.600 188.400 C 71.733 188.400,72.000 188.552,72.000 189.200 C 72.000 189.822,72.267 190.000,73.200 190.000 C 74.000 190.000,74.400 190.200,74.400 190.600 C 74.400 191.062,74.916 191.200,76.643 191.200 C 78.472 191.200,78.843 191.311,78.655 191.800 C 78.419 192.415,78.727 192.541,80.300 192.475 C 80.953 192.448,81.200 192.663,81.200 193.257 C 81.200 193.992,81.406 194.063,83.180 193.939 C 84.831 193.823,85.191 193.922,85.351 194.532 C 85.476 195.010,85.865 195.238,86.471 195.188 C 89.354 194.950,90.708 195.206,90.924 196.030 C 91.112 196.749,91.258 196.797,92.019 196.390 C 92.613 196.072,92.809 196.062,92.625 196.360 C 92.429 196.677,96.580 196.798,107.476 196.794 C 118.403 196.789,122.433 196.668,122.000 196.356 C 121.515 196.007,121.554 195.976,122.200 196.192 C 123.557 196.645,123.763 196.620,123.782 196.000 C 123.795 195.561,124.364 195.368,125.900 195.279 C 127.372 195.194,128.000 194.991,128.000 194.600 C 128.000 194.209,128.628 194.006,130.100 193.921 C 131.706 193.828,132.190 193.653,132.157 193.177 C 132.123 192.683,132.516 192.570,134.057 192.632 C 135.863 192.705,136.207 192.510,136.047 191.500 C 136.021 191.335,136.906 191.200,138.013 191.200 C 139.432 191.200,140.093 191.023,140.255 190.600 C 140.387 190.258,140.983 190.000,141.643 190.000 C 142.533 190.000,142.800 189.816,142.800 189.200 C 142.800 188.552,143.067 188.400,144.200 188.400 C 145.178 188.400,145.600 188.219,145.600 187.800 C 145.600 187.381,146.022 187.200,147.000 187.200 C 147.930 187.200,148.400 187.013,148.400 186.643 C 148.400 186.336,148.670 185.982,149.000 185.855 C 149.330 185.729,149.600 185.349,149.600 185.013 C 149.600 184.579,150.009 184.400,151.000 184.400 C 151.978 184.400,152.400 184.219,152.400 183.800 C 152.400 183.470,152.670 183.200,153.000 183.200 C 153.330 183.200,153.600 182.930,153.600 182.600 C 153.600 182.196,154.004 182.000,154.837 182.000 C 155.738 182.000,156.132 181.783,156.284 181.200 C 156.399 180.760,156.742 180.400,157.047 180.400 C 157.351 180.400,157.600 180.130,157.600 179.800 C 157.600 179.470,157.804 179.200,158.054 179.200 C 158.598 179.200,160.177 177.558,160.538 176.618 C 160.679 176.250,160.976 176.061,161.197 176.198 C 161.419 176.335,161.600 176.167,161.600 175.824 C 161.600 175.467,161.942 175.200,162.400 175.200 C 162.852 175.200,163.200 174.933,163.200 174.587 C 163.200 174.251,163.470 173.871,163.800 173.745 C 164.130 173.618,164.400 173.264,164.400 172.957 C 164.400 172.651,164.670 172.400,165.000 172.400 C 165.330 172.400,165.600 172.130,165.600 171.800 C 165.600 171.467,165.956 171.200,166.400 171.200 C 166.933 171.200,167.200 170.933,167.200 170.400 C 167.200 169.956,167.467 169.600,167.800 169.600 C 168.130 169.600,168.400 169.330,168.400 169.000 C 168.400 168.670,168.670 168.400,169.000 168.400 C 169.330 168.400,169.600 168.142,169.600 167.827 C 169.600 167.512,169.978 167.134,170.439 166.988 C 171.079 166.784,171.232 166.482,171.085 165.711 C 170.942 164.960,171.085 164.651,171.646 164.504 C 172.061 164.395,172.400 164.079,172.400 163.800 C 172.400 163.521,172.761 163.199,173.203 163.083 C 174.024 162.869,174.111 161.969,173.424 160.800 C 173.230 160.470,173.214 160.329,173.388 160.486 C 173.846 160.899,175.200 160.077,175.200 159.386 C 175.200 159.064,175.425 158.845,175.700 158.900 C 175.997 158.959,176.250 158.488,176.322 157.741 C 176.405 156.893,176.699 156.415,177.222 156.278 C 177.781 156.132,178.000 155.727,178.000 154.837 C 178.000 154.095,178.206 153.600,178.515 153.600 C 178.808 153.600,179.072 153.044,179.128 152.308 C 179.182 151.598,179.506 150.861,179.847 150.670 C 180.257 150.441,180.388 150.006,180.233 149.389 C 180.045 148.639,180.175 148.431,180.899 148.328 C 181.664 148.219,181.830 147.897,182.000 146.200 C 182.131 144.893,182.373 144.235,182.700 144.300 C 183.024 144.365,183.200 143.907,183.200 143.000 C 183.200 142.022,183.381 141.600,183.800 141.600 C 184.130 141.600,184.379 141.465,184.353 141.300 C 184.024 139.221,184.478 136.095,185.100 136.144 C 185.710 136.193,185.815 135.748,185.916 132.700 C 185.994 130.332,185.887 129.200,185.587 129.200 C 185.331 129.200,185.397 128.946,185.743 128.600 C 186.073 128.270,186.536 128.000,186.771 128.000 C 187.065 128.000,187.200 124.671,187.200 117.400 C 187.200 108.244,187.118 106.800,186.600 106.800 C 185.913 106.800,185.931 106.935,185.998 102.300 C 186.045 99.016,185.997 98.800,185.224 98.800 C 184.295 98.800,184.271 98.703,184.392 95.442 C 184.468 93.424,184.388 93.119,183.840 93.329 C 183.301 93.536,183.200 93.228,183.200 91.387 C 183.200 89.710,183.060 89.200,182.600 89.200 C 182.208 89.200,182.000 88.807,182.000 88.064 C 182.000 87.257,181.725 86.803,181.050 86.495 C 180.310 86.158,180.143 85.834,180.296 85.031 C 180.442 84.267,180.326 84.000,179.847 84.000 C 179.374 84.000,179.200 83.623,179.200 82.600 C 179.200 81.530,179.034 81.200,178.496 81.200 C 177.968 81.200,177.793 80.876,177.796 79.900 C 177.799 78.883,177.648 78.626,177.100 78.718 C 176.543 78.811,176.400 78.546,176.400 77.418 C 176.400 76.424,176.220 76.000,175.800 76.000 C 175.379 76.000,175.200 75.575,175.200 74.576 C 175.200 73.793,175.040 73.251,174.845 73.372 C 174.405 73.644,173.508 72.625,173.870 72.263 C 174.015 72.118,173.743 72.000,173.267 72.000 C 172.667 72.000,172.400 71.754,172.400 71.200 C 172.400 70.756,172.133 70.400,171.800 70.400 C 171.400 70.400,171.200 70.000,171.200 69.200 C 171.200 68.369,171.004 68.000,170.563 68.000 C 170.212 68.000,169.831 67.642,169.717 67.204 C 169.603 66.767,169.337 66.515,169.128 66.645 C 168.918 66.774,168.647 66.502,168.526 66.040 C 168.406 65.578,168.079 65.200,167.800 65.200 C 167.521 65.200,167.199 64.839,167.084 64.398 C 166.944 63.864,166.662 63.678,166.237 63.841 C 165.779 64.017,165.600 63.849,165.600 63.243 C 165.600 62.779,165.420 62.400,165.200 62.400 C 164.681 62.400,163.200 60.919,163.200 60.400 C 163.200 60.032,162.633 59.837,161.900 59.953 C 161.735 59.979,161.600 59.640,161.600 59.200 C 161.600 58.756,161.333 58.400,161.000 58.400 C 160.670 58.400,160.400 58.130,160.400 57.800 C 160.400 57.470,160.060 57.200,159.644 57.200 C 159.170 57.200,158.910 56.939,158.944 56.500 C 158.975 56.115,158.730 55.800,158.400 55.800 C 158.070 55.800,157.664 55.466,157.497 55.058 C 157.324 54.634,156.951 54.410,156.625 54.535 C 156.229 54.687,156.100 54.519,156.203 53.985 C 156.284 53.562,156.227 53.234,156.075 53.256 C 154.592 53.467,153.600 53.124,153.600 52.400 C 153.600 51.956,153.333 51.600,153.000 51.600 C 152.670 51.600,152.400 51.317,152.400 50.971 C 152.400 50.565,152.082 50.368,151.500 50.416 C 149.966 50.540,149.600 50.421,149.600 49.800 C 149.600 49.470,149.351 49.200,149.047 49.200 C 148.742 49.200,148.399 48.840,148.284 48.400 C 148.132 47.817,147.738 47.600,146.837 47.600 C 145.989 47.600,145.600 47.406,145.600 46.982 C 145.600 46.643,145.375 46.394,145.100 46.430 C 143.685 46.614,142.875 46.331,142.680 45.584 C 142.513 44.947,142.252 44.822,141.488 45.014 C 140.719 45.207,140.462 45.081,140.292 44.430 C 140.131 43.816,139.753 43.600,138.837 43.600 C 137.977 43.600,137.600 43.408,137.600 42.969 C 137.600 42.510,137.247 42.358,136.300 42.410 C 134.105 42.530,133.700 42.426,133.508 41.691 C 133.361 41.128,132.939 40.995,131.461 41.045 C 129.883 41.098,129.600 40.993,129.600 40.354 C 129.600 39.687,129.276 39.600,126.800 39.600 C 124.578 39.600,124.000 39.476,124.000 39.000 C 124.000 38.004,91.202 38.103,90.943 39.100 M114.500 39.099 C 110.485 39.165,103.915 39.165,99.900 39.099 C 95.885 39.034,99.170 38.981,107.200 38.981 C 115.230 38.981,118.515 39.034,114.500 39.099 M307.100 39.087 C 306.495 39.178,305.505 39.178,304.900 39.087 C 304.295 38.995,304.790 38.920,306.000 38.920 C 307.210 38.920,307.705 38.995,307.100 39.087 M28.699 124.074 C 28.634 127.883,28.580 124.880,28.580 117.400 C 28.579 109.920,28.633 106.803,28.699 110.474 C 28.765 114.145,28.765 120.265,28.699 124.074 M186.699 121.478 C 186.628 123.855,186.570 122.020,186.569 117.400 C 186.569 112.780,186.627 110.835,186.698 113.078 C 186.769 115.321,186.770 119.101,186.699 121.478 M96.000 224.215 C 96.000 224.649,95.492 224.800,94.033 224.800 C 92.834 224.800,91.988 224.995,91.865 225.300 C 91.704 225.700,91.657 225.700,91.632 225.300 C 91.613 225.014,91.067 224.800,90.353 224.800 C 89.264 224.800,89.129 224.917,89.285 225.731 C 89.429 226.488,89.307 226.642,88.631 226.551 C 84.886 226.048,84.429 226.078,84.187 226.840 C 83.993 227.451,83.560 227.600,81.973 227.600 C 80.486 227.600,80.000 227.748,80.000 228.200 C 80.000 228.601,79.568 228.815,78.700 228.846 C 76.709 228.917,76.595 228.951,75.844 229.700 C 75.459 230.085,74.706 230.400,74.171 230.400 C 73.575 230.400,73.200 230.631,73.200 231.000 C 73.200 231.419,72.778 231.600,71.800 231.600 C 70.701 231.600,70.400 231.760,70.400 232.345 C 70.400 232.916,70.175 233.046,69.435 232.905 C 68.502 232.726,67.294 233.961,67.854 234.520 C 67.978 234.644,67.701 234.647,67.240 234.526 C 66.653 234.373,66.400 234.494,66.400 234.928 C 66.400 235.337,65.955 235.592,65.100 235.675 C 64.322 235.750,63.840 236.001,63.900 236.300 C 63.955 236.575,63.653 236.800,63.228 236.800 C 62.732 236.800,62.410 237.122,62.328 237.700 C 62.221 238.455,61.991 238.579,60.901 238.470 C 59.854 238.365,59.649 238.462,59.844 238.970 C 60.017 239.420,59.845 239.600,59.243 239.600 C 58.675 239.600,58.400 239.854,58.400 240.376 C 58.400 240.803,58.220 241.264,58.000 241.400 C 57.780 241.536,57.600 241.495,57.600 241.309 C 57.600 240.652,55.996 240.982,55.773 241.686 C 55.648 242.079,55.288 242.400,54.973 242.400 C 54.658 242.400,54.400 242.670,54.400 243.000 C 54.400 243.330,54.130 243.600,53.800 243.600 C 53.457 243.600,53.200 243.960,53.200 244.443 C 53.200 245.037,53.018 245.216,52.585 245.050 C 52.219 244.909,51.867 245.082,51.715 245.476 C 51.389 246.327,49.891 247.830,49.500 247.700 C 49.335 247.645,49.200 247.960,49.200 248.400 C 49.200 248.840,49.065 249.179,48.900 249.153 C 48.167 249.037,47.600 249.232,47.600 249.600 C 47.600 250.120,46.325 251.390,45.476 251.715 C 45.082 251.867,44.909 252.219,45.050 252.585 C 45.216 253.018,45.037 253.200,44.443 253.200 C 43.771 253.200,43.600 253.446,43.600 254.413 C 43.600 255.121,43.351 255.721,43.000 255.855 C 42.670 255.982,42.400 256.336,42.400 256.643 C 42.400 256.949,42.083 257.200,41.696 257.200 C 41.167 257.200,40.993 257.524,40.996 258.500 C 40.999 259.494,40.835 259.787,40.300 259.744 C 39.861 259.710,39.600 259.970,39.600 260.444 C 39.600 260.865,39.321 261.200,38.970 261.200 C 38.499 261.200,38.373 261.528,38.470 262.500 C 38.578 263.577,38.463 263.800,37.800 263.800 C 37.217 263.800,36.965 264.110,36.869 264.943 C 36.775 265.767,36.876 266.000,37.231 265.781 C 37.547 265.585,37.621 265.642,37.438 265.938 C 37.281 266.192,36.814 266.400,36.401 266.400 C 35.820 266.400,35.620 266.742,35.524 267.900 C 35.447 268.838,35.213 269.363,34.900 269.300 C 34.579 269.236,34.400 269.684,34.400 270.553 C 34.400 271.577,34.202 271.958,33.589 272.119 C 33.142 272.236,32.804 272.482,32.836 272.666 C 33.008 273.644,32.731 274.400,32.200 274.400 C 31.747 274.400,31.600 274.889,31.600 276.400 C 31.600 277.962,31.461 278.400,30.963 278.400 C 30.445 278.400,30.342 278.828,30.411 280.700 C 30.526 283.826,30.513 283.877,29.572 284.123 C 28.829 284.317,28.750 284.620,28.803 287.070 C 28.882 290.788,28.880 290.800,28.200 290.800 C 27.678 290.800,27.600 292.622,27.600 304.800 C 27.600 316.978,27.678 318.800,28.200 318.800 C 28.668 318.800,28.800 319.337,28.800 321.237 C 28.800 323.338,28.910 323.704,29.600 323.884 C 30.319 324.072,30.729 325.918,30.447 327.700 C 30.421 327.865,30.670 328.000,31.000 328.000 C 31.453 328.000,31.600 328.489,31.600 330.000 C 31.600 331.511,31.747 332.000,32.200 332.000 C 32.619 332.000,32.800 332.422,32.800 333.400 C 32.800 334.533,32.952 334.800,33.600 334.800 C 34.250 334.800,34.400 335.067,34.400 336.224 C 34.400 337.007,34.568 337.544,34.772 337.417 C 35.327 337.074,35.545 337.645,35.652 339.726 C 35.716 340.957,35.930 341.600,36.275 341.600 C 36.564 341.600,36.800 341.870,36.800 342.200 C 36.800 342.533,37.156 342.800,37.600 342.800 C 38.253 342.800,38.400 343.067,38.400 344.247 C 38.400 345.464,38.519 345.662,39.149 345.497 C 39.726 345.347,39.853 345.474,39.703 346.051 C 39.557 346.607,39.723 346.800,40.346 346.800 C 41.047 346.800,41.161 347.002,41.041 348.031 C 40.943 348.872,41.094 349.338,41.518 349.501 C 42.702 349.955,43.600 351.206,43.600 352.400 C 43.600 353.342,43.776 353.600,44.418 353.600 C 44.974 353.600,45.198 353.823,45.118 354.300 C 45.048 354.713,45.219 354.954,45.534 354.889 C 45.828 354.827,46.164 355.142,46.281 355.589 C 46.398 356.035,46.742 356.400,47.047 356.400 C 47.351 356.400,47.600 356.670,47.600 357.000 C 47.600 357.333,47.956 357.600,48.400 357.600 C 48.941 357.600,49.200 357.867,49.200 358.424 C 49.200 358.905,49.377 359.138,49.627 358.983 C 49.862 358.838,50.153 359.097,50.274 359.560 C 50.394 360.022,50.742 360.400,51.047 360.400 C 51.351 360.400,51.600 360.670,51.600 361.000 C 51.600 361.367,51.974 361.600,52.563 361.600 C 53.328 361.600,53.482 361.764,53.316 362.400 C 53.170 362.956,53.304 363.200,53.753 363.200 C 54.109 363.200,54.400 363.470,54.400 363.800 C 54.400 364.130,54.670 364.400,55.000 364.400 C 55.330 364.400,55.600 364.670,55.600 365.000 C 55.600 365.333,55.956 365.600,56.400 365.600 C 56.925 365.600,57.200 365.867,57.200 366.375 C 57.200 366.956,57.524 367.181,58.500 367.275 C 59.278 367.350,59.760 367.601,59.700 367.900 C 59.645 368.175,59.960 368.400,60.400 368.400 C 60.861 368.400,61.200 368.667,61.200 369.029 C 61.200 369.435,61.518 369.632,62.100 369.584 C 63.701 369.455,64.037 369.587,63.918 370.300 C 63.836 370.788,64.055 370.992,64.643 370.974 C 65.266 370.955,65.437 371.138,65.296 371.674 C 65.140 372.273,65.351 372.400,66.507 372.400 C 67.528 372.400,67.959 372.598,68.098 373.133 C 68.274 373.805,69.600 374.217,69.600 373.600 C 69.600 373.453,69.836 373.333,70.125 373.333 C 70.413 373.333,70.638 373.708,70.625 374.167 C 70.605 374.846,70.840 374.999,71.900 374.996 C 72.858 374.993,73.200 375.171,73.200 375.672 C 73.200 376.169,73.604 376.385,74.700 376.476 C 75.531 376.545,76.222 376.823,76.250 377.100 C 76.341 378.007,76.393 378.032,77.248 377.574 C 77.844 377.255,78.016 377.251,77.825 377.560 C 77.650 377.843,77.989 378.000,78.776 378.000 C 79.578 378.000,80.000 378.200,80.000 378.579 C 80.000 378.996,80.589 379.192,82.100 379.279 C 83.589 379.365,84.168 379.555,84.090 379.931 C 84.008 380.324,84.463 380.432,85.850 380.347 C 87.484 380.246,87.763 380.347,88.057 381.143 C 88.365 381.976,88.624 382.049,91.097 381.997 C 94.785 381.918,94.800 381.921,94.800 382.600 C 94.800 383.552,116.994 383.497,117.527 382.544 C 117.832 382.000,118.524 381.901,121.578 381.969 C 124.997 382.044,125.277 381.990,125.478 381.225 C 125.667 380.500,126.004 380.400,128.247 380.400 C 130.250 380.400,130.800 380.271,130.800 379.800 C 130.800 379.347,131.289 379.200,132.800 379.200 C 134.311 379.200,134.800 379.053,134.800 378.600 C 134.800 378.042,135.496 377.813,136.706 377.971 C 136.984 378.008,137.362 377.631,137.546 377.135 C 137.837 376.349,138.121 376.246,139.740 376.346 C 141.342 376.445,141.600 376.355,141.600 375.699 C 141.600 375.094,141.828 374.972,142.720 375.103 C 143.636 375.237,143.934 375.064,144.348 374.155 C 144.627 373.543,144.978 373.218,145.127 373.434 C 145.515 373.993,146.620 373.861,146.496 373.271 C 146.439 373.000,146.709 372.659,147.096 372.514 C 147.483 372.368,147.980 372.025,148.200 371.750 C 148.420 371.475,149.140 371.194,149.800 371.125 C 150.656 371.036,150.984 370.799,150.944 370.300 C 150.910 369.861,151.170 369.600,151.644 369.600 C 152.060 369.600,152.400 369.341,152.400 369.025 C 152.400 368.669,152.895 368.403,153.700 368.325 C 154.478 368.250,154.960 367.999,154.900 367.700 C 154.845 367.425,155.160 367.200,155.600 367.200 C 156.133 367.200,156.400 366.933,156.400 366.400 C 156.400 365.956,156.667 365.600,157.000 365.600 C 157.330 365.600,157.600 365.330,157.600 365.000 C 157.600 364.667,157.956 364.400,158.400 364.400 C 158.844 364.400,159.200 364.133,159.200 363.800 C 159.200 363.470,159.470 363.200,159.800 363.200 C 160.133 363.200,160.400 362.844,160.400 362.400 C 160.400 361.956,160.667 361.600,161.000 361.600 C 161.330 361.600,161.600 361.330,161.600 361.000 C 161.600 360.667,161.956 360.400,162.400 360.400 C 162.852 360.400,163.200 360.133,163.200 359.787 C 163.200 359.451,163.470 359.071,163.800 358.945 C 164.130 358.818,164.400 358.464,164.400 358.157 C 164.400 357.851,164.670 357.600,165.000 357.600 C 165.330 357.600,165.600 357.330,165.600 357.000 C 165.600 356.670,165.939 356.400,166.353 356.400 C 166.782 356.400,167.201 356.038,167.326 355.560 C 167.447 355.097,167.738 354.838,167.973 354.983 C 168.223 355.138,168.400 354.905,168.400 354.424 C 168.400 353.958,168.661 353.600,169.000 353.600 C 169.330 353.600,169.600 353.330,169.600 353.000 C 169.600 352.667,169.956 352.400,170.400 352.400 C 170.933 352.400,171.200 352.133,171.200 351.600 C 171.200 351.156,171.467 350.800,171.800 350.800 C 172.130 350.800,172.379 350.665,172.353 350.500 C 172.139 349.147,172.473 348.095,173.100 348.144 C 173.539 348.179,173.779 347.939,173.744 347.500 C 173.710 347.061,173.970 346.800,174.444 346.800 C 175.017 346.800,175.200 346.510,175.200 345.600 C 175.200 344.800,175.400 344.400,175.800 344.400 C 176.219 344.400,176.400 343.978,176.400 343.000 C 176.400 342.230,176.571 341.600,176.779 341.600 C 177.587 341.600,179.200 339.666,179.200 338.697 C 179.200 338.141,179.470 337.582,179.800 337.455 C 180.151 337.321,180.400 336.721,180.400 336.013 C 180.400 335.067,180.576 334.800,181.200 334.800 C 181.893 334.800,182.000 334.533,182.000 332.800 C 182.000 331.303,182.148 330.800,182.591 330.800 C 182.999 330.800,183.169 330.399,183.140 329.500 C 183.067 327.250,183.182 326.800,183.833 326.800 C 184.361 326.800,184.444 326.350,184.333 324.078 C 184.211 321.572,184.264 321.358,185.000 321.378 C 185.732 321.398,185.810 321.103,185.916 317.900 C 185.992 315.592,185.884 314.400,185.600 314.400 C 185.331 314.400,185.363 314.188,185.684 313.838 C 185.968 313.529,186.380 313.304,186.600 313.338 C 186.856 313.378,187.038 309.548,187.107 302.700 C 187.200 293.357,187.136 292.000,186.607 292.000 C 186.115 292.000,186.000 291.392,186.000 288.790 C 186.000 285.800,185.936 285.556,185.072 285.227 C 184.211 284.900,184.156 284.696,184.320 282.437 C 184.468 280.385,184.394 280.000,183.848 280.000 C 183.337 280.000,183.200 279.577,183.200 278.000 C 183.200 276.489,183.053 276.000,182.600 276.000 C 182.147 276.000,182.000 275.511,182.000 274.000 C 182.000 272.267,181.893 272.000,181.200 272.000 C 180.552 272.000,180.400 271.733,180.400 270.600 C 180.400 269.622,180.219 269.200,179.800 269.200 C 179.381 269.200,179.200 268.778,179.200 267.800 C 179.200 266.822,179.019 266.400,178.600 266.400 C 178.270 266.400,178.000 266.130,178.000 265.800 C 178.000 265.441,177.631 265.200,177.080 265.200 C 176.260 265.200,176.179 265.045,176.329 263.758 C 176.478 262.482,176.408 262.343,175.729 262.559 C 175.052 262.774,174.980 262.635,175.124 261.402 C 175.246 260.352,175.137 260.000,174.690 260.000 C 174.362 260.000,173.999 259.640,173.884 259.200 C 173.769 258.760,173.388 258.400,173.037 258.400 C 172.576 258.400,172.400 258.014,172.400 257.000 C 172.400 256.022,172.219 255.600,171.800 255.600 C 171.470 255.600,171.200 255.330,171.200 255.000 C 171.200 254.667,170.844 254.400,170.400 254.400 C 169.956 254.400,169.600 254.133,169.600 253.800 C 169.600 253.470,169.330 253.200,169.000 253.200 C 168.670 253.200,168.400 252.861,168.400 252.447 C 168.400 252.018,168.038 251.599,167.560 251.474 C 167.097 251.353,166.838 251.062,166.983 250.827 C 167.138 250.577,166.905 250.400,166.424 250.400 C 165.971 250.400,165.600 250.167,165.600 249.881 C 165.600 249.596,165.068 248.921,164.417 248.381 C 163.766 247.842,163.226 247.175,163.217 246.900 C 163.208 246.625,162.840 246.400,162.400 246.400 C 161.871 246.400,161.600 246.133,161.600 245.613 C 161.600 245.077,161.408 244.899,161.000 245.055 C 160.584 245.215,160.400 245.028,160.400 244.443 C 160.400 243.960,160.143 243.600,159.800 243.600 C 159.470 243.600,159.200 243.330,159.200 243.000 C 159.200 242.667,158.844 242.400,158.400 242.400 C 157.871 242.400,157.600 242.133,157.600 241.613 C 157.600 241.077,157.408 240.899,157.000 241.055 C 156.584 241.215,156.400 241.028,156.400 240.443 C 156.400 239.867,156.147 239.600,155.600 239.600 C 155.160 239.600,154.845 239.375,154.900 239.100 C 154.960 238.801,154.478 238.550,153.700 238.475 C 152.724 238.381,152.400 238.156,152.400 237.575 C 152.400 237.149,152.149 236.800,151.843 236.800 C 151.536 236.800,151.178 236.518,151.046 236.174 C 150.913 235.830,150.489 235.581,150.103 235.620 C 148.564 235.777,148.026 235.597,148.255 235.000 C 148.434 234.535,148.161 234.400,147.043 234.400 C 146.076 234.400,145.600 234.216,145.600 233.843 C 145.600 233.536,145.330 233.182,145.000 233.055 C 144.670 232.929,144.400 232.549,144.400 232.213 C 144.400 231.779,143.991 231.600,143.000 231.600 C 142.022 231.600,141.600 231.419,141.600 231.000 C 141.600 230.613,141.209 230.398,140.500 230.395 C 138.787 230.386,137.600 229.960,137.600 229.353 C 137.600 228.988,137.125 228.800,136.200 228.800 C 135.222 228.800,134.800 228.619,134.800 228.200 C 134.800 227.749,134.316 227.600,132.847 227.600 C 131.293 227.600,130.854 227.451,130.703 226.870 C 130.538 226.241,130.183 226.165,128.114 226.314 C 125.937 226.472,125.696 226.410,125.496 225.644 C 125.249 224.699,123.412 224.439,123.065 225.300 C 122.904 225.700,122.857 225.700,122.832 225.300 C 122.810 224.951,121.956 224.800,120.000 224.800 C 117.973 224.800,117.228 224.662,117.300 224.300 C 117.378 223.912,115.011 223.781,106.700 223.715 C 97.540 223.642,96.000 223.714,96.000 224.215 M282.753 223.900 C 282.727 224.065,282.727 224.335,282.753 224.500 C 282.809 224.859,282.618 224.874,278.900 224.803 C 276.218 224.752,276.000 224.810,276.000 225.574 C 276.000 226.028,275.809 226.400,275.576 226.400 C 275.343 226.400,275.288 226.625,275.453 226.900 C 275.684 227.283,275.619 227.294,275.177 226.947 C 273.956 225.989,269.564 226.044,269.192 227.022 C 268.935 227.697,268.622 227.855,267.834 227.704 C 267.131 227.570,266.732 227.711,266.562 228.154 C 266.381 228.627,265.789 228.800,264.357 228.800 C 262.951 228.800,262.400 228.957,262.400 229.357 C 262.400 229.962,261.562 230.400,260.405 230.400 C 259.898 230.400,259.733 230.621,259.864 231.123 C 260.025 231.741,259.846 231.821,258.626 231.679 C 257.513 231.549,257.200 231.654,257.200 232.156 C 257.200 232.625,256.820 232.800,255.800 232.800 C 254.667 232.800,254.400 232.952,254.400 233.600 C 254.400 234.044,254.133 234.400,253.800 234.400 C 253.470 234.400,253.200 234.670,253.200 235.000 C 253.200 235.415,252.783 235.600,251.847 235.600 C 250.841 235.600,250.441 235.800,250.289 236.381 C 250.136 236.967,249.831 237.116,249.070 236.978 C 248.311 236.841,247.992 236.996,247.801 237.597 C 247.661 238.039,247.288 238.400,246.973 238.400 C 246.658 238.400,246.400 238.649,246.400 238.953 C 246.400 239.258,246.022 239.606,245.560 239.726 C 245.098 239.847,244.826 240.118,244.955 240.328 C 245.085 240.538,244.923 240.932,244.596 241.204 C 244.268 241.476,244.000 241.534,244.000 241.335 C 244.000 241.135,243.640 240.971,243.200 240.971 C 242.699 240.971,242.400 241.238,242.400 241.686 C 242.400 242.140,242.100 242.400,241.576 242.400 C 241.095 242.400,240.862 242.577,241.017 242.827 C 241.162 243.062,240.903 243.353,240.440 243.474 C 239.942 243.604,239.600 244.017,239.600 244.489 C 239.600 245.033,239.409 245.212,239.000 245.055 C 238.592 244.899,238.400 245.077,238.400 245.613 C 238.400 246.046,238.199 246.400,237.953 246.400 C 237.707 246.400,236.807 247.099,235.953 247.953 C 235.099 248.807,234.400 249.707,234.400 249.953 C 234.400 250.199,234.229 250.400,234.021 250.400 C 233.470 250.400,231.600 252.212,231.600 252.746 C 231.600 252.996,231.310 253.200,230.956 253.200 C 230.463 253.200,230.349 253.510,230.467 254.528 C 230.610 255.750,230.545 255.840,229.646 255.668 C 228.847 255.516,228.718 255.609,228.936 256.178 C 229.125 256.671,228.969 256.935,228.402 257.084 C 227.961 257.199,227.600 257.542,227.600 257.847 C 227.600 258.151,227.349 258.400,227.043 258.400 C 226.349 258.400,225.990 259.274,226.260 260.306 C 226.405 260.863,226.223 261.153,225.632 261.307 C 225.008 261.471,224.800 261.845,224.800 262.805 C 224.800 263.779,224.656 264.030,224.200 263.855 C 223.796 263.700,223.600 263.874,223.600 264.386 C 223.600 264.804,223.275 265.249,222.877 265.375 C 222.366 265.538,222.179 265.952,222.236 266.789 C 222.282 267.440,222.202 267.958,222.059 267.939 C 221.133 267.818,220.800 268.141,220.800 269.157 C 220.800 269.817,220.542 270.413,220.200 270.545 C 219.791 270.702,219.600 271.342,219.600 272.560 C 219.600 273.974,219.439 274.397,218.827 274.592 C 218.296 274.760,218.105 275.107,218.219 275.696 C 218.317 276.207,218.063 276.855,217.592 277.293 C 216.971 277.872,216.800 278.554,216.800 280.458 C 216.800 282.452,216.693 282.844,216.200 282.655 C 215.710 282.467,215.600 282.840,215.600 284.679 C 215.600 285.919,215.482 286.815,215.337 286.670 C 214.187 285.520,214.033 287.477,214.009 303.635 C 213.984 319.796,213.994 320.000,214.792 320.000 C 215.605 320.000,215.806 320.755,215.616 323.100 C 215.568 323.682,215.765 324.000,216.171 324.000 C 216.682 324.000,216.800 324.517,216.800 326.753 C 216.800 329.134,216.904 329.534,217.570 329.708 C 218.125 329.853,218.307 330.201,218.225 330.955 C 218.138 331.749,218.289 332.000,218.855 332.000 C 219.265 332.000,219.615 332.225,219.632 332.500 C 219.650 332.775,219.695 333.720,219.732 334.600 C 219.776 335.640,219.975 336.165,220.300 336.100 C 220.754 336.009,220.997 337.016,220.830 338.300 C 220.794 338.575,221.143 338.800,221.606 338.800 C 222.069 338.800,222.336 338.980,222.200 339.200 C 222.064 339.420,222.150 339.600,222.390 339.600 C 222.705 339.600,222.704 339.833,222.384 340.430 C 222.008 341.132,222.067 341.293,222.770 341.476 C 223.227 341.596,223.600 341.942,223.600 342.247 C 223.600 342.551,223.870 342.800,224.200 342.800 C 224.619 342.800,224.800 343.222,224.800 344.200 C 224.800 345.359,224.946 345.600,225.647 345.600 C 226.309 345.600,226.446 345.782,226.274 346.439 C 225.991 347.521,226.336 348.400,227.043 348.400 C 227.349 348.400,227.600 348.670,227.600 349.000 C 227.600 349.330,227.870 349.600,228.200 349.600 C 228.530 349.600,228.800 349.870,228.800 350.200 C 228.800 350.533,229.156 350.800,229.600 350.800 C 230.248 350.800,230.400 351.067,230.400 352.200 C 230.400 353.178,230.581 353.600,231.000 353.600 C 231.330 353.600,231.600 353.876,231.600 354.213 C 231.600 354.549,231.870 354.929,232.200 355.055 C 232.530 355.182,232.800 355.536,232.800 355.843 C 232.800 356.149,233.160 356.400,233.600 356.400 C 234.044 356.400,234.400 356.667,234.400 357.000 C 234.400 357.330,234.670 357.600,235.000 357.600 C 235.330 357.600,235.600 357.876,235.600 358.213 C 235.600 358.549,235.870 358.929,236.200 359.055 C 236.530 359.182,236.800 359.536,236.800 359.843 C 236.800 360.149,237.160 360.400,237.600 360.400 C 238.040 360.400,238.400 360.649,238.400 360.953 C 238.400 361.258,238.761 361.601,239.202 361.716 C 239.702 361.847,239.919 362.146,239.779 362.510 C 239.636 362.883,239.868 363.177,240.418 363.321 C 240.895 363.445,241.163 363.737,241.017 363.973 C 240.862 364.223,241.095 364.400,241.576 364.400 C 242.042 364.400,242.400 364.661,242.400 365.000 C 242.400 365.330,242.649 365.600,242.953 365.600 C 243.258 365.600,243.607 365.983,243.729 366.451 C 243.906 367.127,244.174 367.260,245.025 367.097 C 245.844 366.941,246.146 367.071,246.296 367.646 C 246.405 368.061,246.723 368.400,247.004 368.400 C 247.285 368.400,247.618 368.670,247.745 369.000 C 247.879 369.351,248.479 369.600,249.187 369.600 C 250.133 369.600,250.400 369.776,250.400 370.400 C 250.400 370.844,250.667 371.200,251.000 371.200 C 251.330 371.200,251.600 371.490,251.600 371.844 C 251.600 372.342,251.912 372.451,252.983 372.326 C 254.135 372.192,254.385 372.301,254.483 372.982 C 254.571 373.597,254.896 373.800,255.794 373.800 C 256.614 373.800,257.031 374.020,257.124 374.500 C 257.221 375.004,257.642 375.200,258.629 375.200 C 259.581 375.200,260.000 375.383,260.000 375.800 C 260.000 376.195,260.395 376.400,261.153 376.400 C 261.982 376.400,262.367 376.632,262.522 377.225 C 262.641 377.678,262.977 378.017,263.269 377.977 C 264.993 377.743,266.400 378.044,266.400 378.645 C 266.400 379.141,266.691 379.248,267.654 379.107 C 268.629 378.964,268.950 379.087,269.100 379.661 C 269.264 380.288,269.705 380.400,272.002 380.400 C 274.337 380.400,274.703 380.497,274.656 381.100 C 274.607 381.709,275.015 381.807,277.800 381.851 C 280.407 381.892,281.024 382.021,281.129 382.551 C 281.318 383.500,304.000 383.549,304.000 382.600 C 304.000 381.914,303.899 381.928,308.331 381.998 C 311.360 382.046,311.681 381.978,311.873 381.243 C 312.054 380.550,312.465 380.418,314.742 380.317 C 316.607 380.235,317.370 380.051,317.300 379.700 C 317.201 379.204,318.017 379.052,320.065 379.184 C 320.667 379.223,321.280 378.986,321.475 378.638 C 321.664 378.299,322.175 377.968,322.610 377.902 C 323.044 377.836,323.460 377.606,323.534 377.391 C 323.851 376.467,324.487 376.115,325.605 376.245 C 326.542 376.354,326.800 376.228,326.800 375.661 C 326.800 375.083,327.044 374.974,328.025 375.118 C 329.017 375.264,329.291 375.137,329.471 374.450 C 329.636 373.820,329.933 373.645,330.623 373.770 C 331.556 373.939,332.623 373.156,332.130 372.663 C 331.985 372.518,332.527 372.400,333.333 372.400 C 334.370 372.400,334.800 372.224,334.800 371.800 C 334.800 371.381,335.222 371.200,336.200 371.200 C 337.333 371.200,337.600 371.048,337.600 370.400 C 337.600 369.956,337.867 369.600,338.200 369.600 C 338.530 369.600,338.800 369.276,338.800 368.880 C 338.800 368.288,339.058 368.191,340.262 368.331 C 341.486 368.474,341.684 368.396,341.475 367.851 C 341.310 367.421,341.437 367.200,341.850 367.200 C 342.194 367.200,342.567 366.846,342.681 366.413 C 342.794 365.981,343.227 365.518,343.643 365.386 C 344.059 365.254,344.400 364.978,344.400 364.773 C 344.400 364.568,344.670 364.400,345.000 364.400 C 345.330 364.400,345.600 364.130,345.600 363.800 C 345.600 363.470,345.870 363.200,346.200 363.200 C 346.530 363.200,346.779 363.065,346.753 362.900 C 346.574 361.770,346.861 361.291,347.600 361.484 C 348.156 361.630,348.400 361.496,348.400 361.047 C 348.400 360.691,348.649 360.400,348.953 360.400 C 349.258 360.400,349.602 360.035,349.719 359.589 C 349.836 359.142,350.172 358.827,350.466 358.889 C 350.765 358.951,350.976 358.692,350.944 358.300 C 350.910 357.861,351.170 357.600,351.644 357.600 C 352.060 357.600,352.400 357.330,352.400 357.000 C 352.400 356.670,352.670 356.400,353.000 356.400 C 353.338 356.400,353.600 356.042,353.600 355.582 C 353.600 355.026,353.823 354.802,354.300 354.882 C 354.713 354.952,354.954 354.781,354.889 354.466 C 354.827 354.172,355.142 353.836,355.589 353.719 C 356.035 353.602,356.400 353.258,356.400 352.953 C 356.400 352.649,356.691 352.400,357.047 352.400 C 357.496 352.400,357.630 352.156,357.484 351.600 C 357.318 350.964,357.472 350.800,358.237 350.800 C 359.040 350.800,359.200 350.601,359.200 349.600 C 359.200 348.800,359.400 348.400,359.800 348.400 C 360.133 348.400,360.400 348.044,360.400 347.600 C 360.400 347.127,360.667 346.800,361.052 346.800 C 361.568 346.800,361.659 346.521,361.489 345.472 C 361.300 344.307,361.379 344.148,362.137 344.172 C 362.850 344.195,362.999 343.975,362.996 342.900 C 362.993 341.924,363.168 341.600,363.696 341.600 C 364.234 341.600,364.400 341.270,364.400 340.200 C 364.400 339.222,364.581 338.800,365.000 338.800 C 365.415 338.800,365.600 338.383,365.600 337.444 C 365.600 336.399,365.760 336.102,366.300 336.144 C 366.812 336.185,367.034 335.851,367.125 334.900 C 367.198 334.142,367.474 333.600,367.787 333.600 C 368.172 333.600,368.305 333.036,368.261 331.600 C 368.210 329.938,368.318 329.599,368.900 329.600 C 369.472 329.600,369.600 329.240,369.600 327.627 C 369.600 326.027,369.746 325.607,370.375 325.408 C 370.980 325.216,371.144 324.805,371.127 323.524 C 371.111 322.412,371.312 321.769,371.752 321.523 C 372.282 321.226,372.400 320.431,372.400 317.157 C 372.400 314.321,372.530 313.233,372.845 313.428 C 373.517 313.843,374.001 312.749,373.532 311.873 C 373.231 311.311,373.243 311.180,373.577 311.386 C 373.916 311.595,374.020 309.309,373.977 302.586 C 373.923 294.027,373.876 293.493,373.160 293.305 C 372.495 293.132,372.400 292.715,372.400 289.973 C 372.400 287.476,372.266 286.765,371.739 286.470 C 371.208 286.173,371.087 285.500,371.122 283.050 C 371.161 280.275,371.094 280.000,370.382 280.000 C 369.755 280.000,369.600 279.723,369.600 278.600 C 369.600 277.533,369.433 277.200,368.900 277.200 C 368.308 277.200,368.221 276.891,368.339 275.200 C 368.449 273.609,368.352 273.200,367.864 273.200 C 367.464 273.200,367.207 272.747,367.125 271.900 C 367.026 270.872,366.823 270.605,366.154 270.626 C 365.430 270.648,365.333 270.468,365.479 269.379 C 365.601 268.478,365.468 268.035,365.026 267.865 C 364.649 267.720,364.400 267.143,364.400 266.413 C 364.400 265.601,364.201 265.200,363.800 265.200 C 363.446 265.200,363.197 264.831,363.194 264.300 C 363.186 263.213,362.818 262.622,361.949 262.302 C 361.494 262.135,361.340 261.696,361.439 260.848 C 361.549 259.907,361.447 259.684,360.990 259.859 C 360.589 260.013,360.400 259.825,360.400 259.272 C 360.400 258.822,360.094 258.400,359.715 258.327 C 359.254 258.238,359.024 257.802,359.015 256.997 C 359.004 256.107,358.820 255.814,358.300 255.856 C 357.915 255.886,357.600 255.655,357.600 255.343 C 357.600 255.031,357.330 254.671,357.000 254.545 C 356.670 254.418,356.400 254.064,356.400 253.757 C 356.400 253.451,356.130 253.200,355.800 253.200 C 355.470 253.200,355.200 252.913,355.200 252.563 C 355.200 252.212,354.840 251.831,354.400 251.716 C 353.960 251.601,353.600 251.258,353.600 250.953 C 353.600 250.649,353.330 250.400,353.000 250.400 C 352.670 250.400,352.400 250.130,352.400 249.800 C 352.400 249.272,351.954 249.036,351.147 249.137 C 351.008 249.154,350.918 248.861,350.947 248.484 C 350.976 248.107,350.761 247.850,350.466 247.911 C 350.172 247.973,349.836 247.658,349.719 247.211 C 349.602 246.765,349.279 246.400,349.000 246.400 C 348.721 246.400,348.399 246.039,348.284 245.598 C 348.144 245.064,347.862 244.878,347.437 245.041 C 346.979 245.217,346.800 245.049,346.800 244.443 C 346.800 243.979,346.620 243.600,346.400 243.600 C 346.180 243.600,345.640 243.240,345.200 242.800 C 344.760 242.360,344.400 241.820,344.400 241.600 C 344.400 241.232,343.833 241.037,343.100 241.153 C 342.935 241.179,342.800 240.840,342.800 240.400 C 342.800 239.778,342.533 239.600,341.600 239.600 C 340.800 239.600,340.400 239.400,340.400 239.000 C 340.400 238.667,340.044 238.400,339.600 238.400 C 339.067 238.400,338.800 238.133,338.800 237.600 C 338.800 236.984,338.533 236.800,337.643 236.800 C 336.983 236.800,336.387 236.542,336.255 236.200 C 336.129 235.870,335.749 235.600,335.413 235.600 C 335.076 235.600,334.800 235.330,334.800 235.000 C 334.800 234.582,334.379 234.400,333.413 234.400 C 332.361 234.400,332.079 234.259,332.249 233.817 C 332.495 233.175,330.763 232.529,330.023 232.986 C 329.778 233.137,329.600 232.900,329.600 232.424 C 329.600 231.749,329.347 231.600,328.200 231.600 C 327.178 231.600,326.800 231.426,326.800 230.955 C 326.800 230.465,326.510 230.352,325.603 230.485 C 324.945 230.581,324.484 230.583,324.579 230.488 C 324.983 230.084,323.205 228.712,322.585 228.950 C 322.135 229.123,321.860 228.949,321.716 228.402 C 321.539 227.725,321.172 227.600,319.366 227.600 C 317.627 227.600,317.268 227.487,317.455 227.000 C 317.712 226.330,317.596 226.308,314.300 226.396 C 312.221 226.451,312.000 226.377,312.000 225.628 C 312.000 224.846,311.779 224.800,308.000 224.800 C 304.711 224.800,304.000 224.693,304.000 224.200 C 304.000 223.455,301.761 223.367,301.465 224.100 C 301.304 224.500,301.257 224.500,301.232 224.100 C 301.196 223.540,282.841 223.341,282.753 223.900 M28.699 310.276 C 28.632 313.534,28.577 310.980,28.577 304.600 C 28.576 298.220,28.631 295.554,28.699 298.676 C 28.766 301.797,28.767 307.017,28.699 310.276 M186.698 306.900 C 186.627 309.155,186.569 307.310,186.569 302.800 C 186.569 298.290,186.627 296.445,186.698 298.700 C 186.770 300.955,186.770 304.645,186.698 306.900 " stroke="none" fill="#7c4cfc" fill-rule="evenodd"></path><path id="path1" d="M281.400 38.800 L 279.800 39.086 281.276 39.143 C 282.088 39.174,282.864 39.020,283.000 38.800 C 283.136 38.580,283.192 38.426,283.124 38.457 C 283.056 38.488,282.280 38.642,281.400 38.800 M99.900 39.099 C 103.915 39.165,110.485 39.165,114.500 39.099 C 118.515 39.034,115.230 38.981,107.200 38.981 C 99.170 38.981,95.885 39.034,99.900 39.099 M304.900 39.087 C 305.505 39.178,306.495 39.178,307.100 39.087 C 307.705 38.995,307.210 38.920,306.000 38.920 C 304.790 38.920,304.295 38.995,304.900 39.087 M316.694 41.239 C 317.155 41.409,318.042 41.404,318.666 41.227 C 319.619 40.956,319.486 40.907,317.828 40.917 C 316.430 40.925,316.100 41.019,316.694 41.239 M28.580 117.400 C 28.580 124.880,28.634 127.883,28.699 124.074 C 28.765 120.265,28.765 114.145,28.699 110.474 C 28.633 106.803,28.579 109.920,28.580 117.400 M186.569 117.400 C 186.570 122.020,186.628 123.855,186.699 121.478 C 186.770 119.101,186.769 115.321,186.698 113.078 C 186.627 110.835,186.569 112.780,186.569 117.400 M85.600 226.225 C 87.003 226.535,89.518 226.590,89.343 226.307 C 89.238 226.138,88.218 226.021,87.076 226.046 C 85.934 226.072,85.270 226.152,85.600 226.225 M126.500 226.287 C 127.105 226.378,128.095 226.378,128.700 226.287 C 129.305 226.195,128.810 226.120,127.600 226.120 C 126.390 226.120,125.895 226.195,126.500 226.287 M272.388 226.298 C 273.591 226.380,274.841 226.662,275.165 226.924 C 275.595 227.272,275.678 227.274,275.474 226.934 C 275.321 226.678,275.421 226.377,275.698 226.266 C 275.974 226.154,274.850 226.082,273.200 226.106 C 270.681 226.141,270.551 226.172,272.388 226.298 M313.107 226.290 C 313.826 226.379,314.906 226.377,315.507 226.286 C 316.108 226.195,315.520 226.122,314.200 226.124 C 312.880 226.126,312.388 226.201,313.107 226.290 M28.577 304.600 C 28.577 310.980,28.632 313.534,28.699 310.276 C 28.767 307.017,28.766 301.797,28.699 298.676 C 28.631 295.554,28.576 298.220,28.577 304.600 M186.569 302.800 C 186.569 307.310,186.627 309.155,186.698 306.900 C 186.770 304.645,186.770 300.955,186.698 298.700 C 186.627 296.445,186.569 298.290,186.569 302.800 " stroke="none" fill="#804cfc" fill-rule="evenodd"></path><path id="path2" d="M281.400 38.800 L 279.800 39.086 281.276 39.143 C 282.088 39.174,282.864 39.020,283.000 38.800 C 283.136 38.580,283.192 38.426,283.124 38.457 C 283.056 38.488,282.280 38.642,281.400 38.800 M99.900 39.099 C 103.915 39.165,110.485 39.165,114.500 39.099 C 118.515 39.034,115.230 38.981,107.200 38.981 C 99.170 38.981,95.885 39.034,99.900 39.099 M304.900 39.087 C 305.505 39.178,306.495 39.178,307.100 39.087 C 307.705 38.995,307.210 38.920,306.000 38.920 C 304.790 38.920,304.295 38.995,304.900 39.087 M316.694 41.239 C 317.155 41.409,318.042 41.404,318.666 41.227 C 319.619 40.956,319.486 40.907,317.828 40.917 C 316.430 40.925,316.100 41.019,316.694 41.239 M28.580 117.400 C 28.580 124.880,28.634 127.883,28.699 124.074 C 28.765 120.265,28.765 114.145,28.699 110.474 C 28.633 106.803,28.579 109.920,28.580 117.400 M186.569 117.400 C 186.570 122.020,186.628 123.855,186.699 121.478 C 186.770 119.101,186.769 115.321,186.698 113.078 C 186.627 110.835,186.569 112.780,186.569 117.400 M85.600 226.225 C 87.003 226.535,89.518 226.590,89.343 226.307 C 89.238 226.138,88.218 226.021,87.076 226.046 C 85.934 226.072,85.270 226.152,85.600 226.225 M126.500 226.287 C 127.105 226.378,128.095 226.378,128.700 226.287 C 129.305 226.195,128.810 226.120,127.600 226.120 C 126.390 226.120,125.895 226.195,126.500 226.287 M272.388 226.298 C 273.591 226.380,274.841 226.662,275.165 226.924 C 275.595 227.272,275.678 227.274,275.474 226.934 C 275.321 226.678,275.421 226.377,275.698 226.266 C 275.974 226.154,274.850 226.082,273.200 226.106 C 270.681 226.141,270.551 226.172,272.388 226.298 M313.107 226.290 C 313.826 226.379,314.906 226.377,315.507 226.286 C 316.108 226.195,315.520 226.122,314.200 226.124 C 312.880 226.126,312.388 226.201,313.107 226.290 M28.577 304.600 C 28.577 310.980,28.632 313.534,28.699 310.276 C 28.767 307.017,28.766 301.797,28.699 298.676 C 28.631 295.554,28.576 298.220,28.577 304.600 M186.569 302.800 C 186.569 307.310,186.627 309.155,186.698 306.900 C 186.770 304.645,186.770 300.955,186.698 298.700 C 186.627 296.445,186.569 298.290,186.569 302.800 " stroke="none" fill="#804cfc" fill-rule="evenodd"></path><path id="path3" d="M281.400 38.800 L 279.800 39.086 281.276 39.143 C 282.088 39.174,282.864 39.020,283.000 38.800 C 283.136 38.580,283.192 38.426,283.124 38.457 C 283.056 38.488,282.280 38.642,281.400 38.800 M99.900 39.099 C 103.915 39.165,110.485 39.165,114.500 39.099 C 118.515 39.034,115.230 38.981,107.200 38.981 C 99.170 38.981,95.885 39.034,99.900 39.099 M304.900 39.087 C 305.505 39.178,306.495 39.178,307.100 39.087 C 307.705 38.995,307.210 38.920,306.000 38.920 C 304.790 38.920,304.295 38.995,304.900 39.087 M316.694 41.239 C 317.155 41.409,318.042 41.404,318.666 41.227 C 319.619 40.956,319.486 40.907,317.828 40.917 C 316.430 40.925,316.100 41.019,316.694 41.239 M28.580 117.400 C 28.580 124.880,28.634 127.883,28.699 124.074 C 28.765 120.265,28.765 114.145,28.699 110.474 C 28.633 106.803,28.579 109.920,28.580 117.400 M186.569 117.400 C 186.570 122.020,186.628 123.855,186.699 121.478 C 186.770 119.101,186.769 115.321,186.698 113.078 C 186.627 110.835,186.569 112.780,186.569 117.400 M85.600 226.225 C 87.003 226.535,89.518 226.590,89.343 226.307 C 89.238 226.138,88.218 226.021,87.076 226.046 C 85.934 226.072,85.270 226.152,85.600 226.225 M126.500 226.287 C 127.105 226.378,128.095 226.378,128.700 226.287 C 129.305 226.195,128.810 226.120,127.600 226.120 C 126.390 226.120,125.895 226.195,126.500 226.287 M272.388 226.298 C 273.591 226.380,274.841 226.662,275.165 226.924 C 275.595 227.272,275.678 227.274,275.474 226.934 C 275.321 226.678,275.421 226.377,275.698 226.266 C 275.974 226.154,274.850 226.082,273.200 226.106 C 270.681 226.141,270.551 226.172,272.388 226.298 M313.107 226.290 C 313.826 226.379,314.906 226.377,315.507 226.286 C 316.108 226.195,315.520 226.122,314.200 226.124 C 312.880 226.126,312.388 226.201,313.107 226.290 M28.577 304.600 C 28.577 310.980,28.632 313.534,28.699 310.276 C 28.767 307.017,28.766 301.797,28.699 298.676 C 28.631 295.554,28.576 298.220,28.577 304.600 M186.569 302.800 C 186.569 307.310,186.627 309.155,186.698 306.900 C 186.770 304.645,186.770 300.955,186.698 298.700 C 186.627 296.445,186.569 298.290,186.569 302.800 " stroke="none" fill="#804cfc" fill-rule="evenodd"></path><path id="path4" d="M281.400 38.800 L 279.800 39.086 281.276 39.143 C 282.088 39.174,282.864 39.020,283.000 38.800 C 283.136 38.580,283.192 38.426,283.124 38.457 C 283.056 38.488,282.280 38.642,281.400 38.800 M99.900 39.099 C 103.915 39.165,110.485 39.165,114.500 39.099 C 118.515 39.034,115.230 38.981,107.200 38.981 C 99.170 38.981,95.885 39.034,99.900 39.099 M304.900 39.087 C 305.505 39.178,306.495 39.178,307.100 39.087 C 307.705 38.995,307.210 38.920,306.000 38.920 C 304.790 38.920,304.295 38.995,304.900 39.087 M316.694 41.239 C 317.155 41.409,318.042 41.404,318.666 41.227 C 319.619 40.956,319.486 40.907,317.828 40.917 C 316.430 40.925,316.100 41.019,316.694 41.239 M28.580 117.400 C 28.580 124.880,28.634 127.883,28.699 124.074 C 28.765 120.265,28.765 114.145,28.699 110.474 C 28.633 106.803,28.579 109.920,28.580 117.400 M186.569 117.400 C 186.570 122.020,186.628 123.855,186.699 121.478 C 186.770 119.101,186.769 115.321,186.698 113.078 C 186.627 110.835,186.569 112.780,186.569 117.400 M85.600 226.225 C 87.003 226.535,89.518 226.590,89.343 226.307 C 89.238 226.138,88.218 226.021,87.076 226.046 C 85.934 226.072,85.270 226.152,85.600 226.225 M126.500 226.287 C 127.105 226.378,128.095 226.378,128.700 226.287 C 129.305 226.195,128.810 226.120,127.600 226.120 C 126.390 226.120,125.895 226.195,126.500 226.287 M272.388 226.298 C 273.591 226.380,274.841 226.662,275.165 226.924 C 275.595 227.272,275.678 227.274,275.474 226.934 C 275.321 226.678,275.421 226.377,275.698 226.266 C 275.974 226.154,274.850 226.082,273.200 226.106 C 270.681 226.141,270.551 226.172,272.388 226.298 M313.107 226.290 C 313.826 226.379,314.906 226.377,315.507 226.286 C 316.108 226.195,315.520 226.122,314.200 226.124 C 312.880 226.126,312.388 226.201,313.107 226.290 M28.577 304.600 C 28.577 310.980,28.632 313.534,28.699 310.276 C 28.767 307.017,28.766 301.797,28.699 298.676 C 28.631 295.554,28.576 298.220,28.577 304.600 M186.569 302.800 C 186.569 307.310,186.627 309.155,186.698 306.900 C 186.770 304.645,186.770 300.955,186.698 298.700 C 186.627 296.445,186.569 298.290,186.569 302.800 " stroke="none" fill="#804cfc" fill-rule="evenodd"></path></g></svg>