<?xml version="1.0" standalone="yes"?>
<svg xmlns="http://www.w3.org/2000/svg" width="387" height="119">
    <path style="fill:#4901ff; stroke:none;" d="M62 1C56.7877 29.0758 61 61.4393 61 90C61 95.0735 58.0366 116.561 65.0648 117.338C72.9052 118.205 70 95.7556 70 91C70 62.1241 74.2697 29.385 69 1L62 1z"/>
    <path style="fill:#4d0af9; stroke:none;" d="M63 1L64 2L63 1z"/>
    <path style="fill:#4a07f4; stroke:none;" d="M67 1L68 2L67 1z"/>
    <path style="fill:#4901ff; stroke:none;" d="M152 115C163.326 116.888 160 104.364 160 95L160 29C160 23.6329 162.623 6.62292 159 3C156.58 0.579536 151.958 2.36549 151 5C149.045 10.3752 151 20.2186 151 26L151 90C151 97.1641 152.766 111.935 152 115z"/>
    <path style="fill:#4d0af9; stroke:none;" d="M61 3L62 4L61 3M69 3L70 4L69 3z"/>
    <path style="fill:#4901ff; stroke:none;" d="M108.317 5.04707C103.598 7.95038 106 22.1648 106 27L106 94C106 97.5874 104.035 118.273 112.683 112.953C117.402 110.05 115 95.8352 115 91L115 24C115 20.4127 116.965 -0.273102 108.317 5.04707M123.317 5.04707C118.598 7.95038 121 22.1648 121 27L121 94C121 97.5874 119.035 118.273 127.683 112.953C132.402 110.05 130 95.8352 130 91L130 24C130 20.4127 131.965 -0.273109 123.317 5.04707M228.317 5.04707C223.598 7.95037 226 22.1648 226 27L226 94C226 97.5873 224.035 118.273 232.683 112.953C237.402 110.05 235 95.8352 235 91L235 24C235 20.4127 236.965 -0.273102 228.317 5.04707M308 111C311.845 103.61 310 93.1503 310 85L310 30C310 26.2426 312.241 2.55741 303.317 8.04707C298.499 11.0111 301 26.0353 301 31L301 92C301 99.4999 298.362 109.91 308 111M47 12C42.7061 35.1286 46 61.4831 46 85C46 89.3444 43.4209 107.169 50.9352 106.338C57.6205 105.599 55 88.6169 55 84C55 60.7984 58.2364 34.8193 54 12L47 12z"/>
    <path style="fill:#4d0af9; stroke:none;" d="M48 12L49 13L48 12M52 12L53 13L52 12z"/>
    <path style="fill:#4901ff; stroke:none;" d="M168.317 14.0471C163.912 16.7572 166 28.5625 166 33L166 89C166 92.444 164.673 108.881 172.683 103.953C177.088 101.243 175 89.4375 175 85L175 29C175 25.556 176.327 9.11921 168.317 14.0471M333.317 14.0471C329.024 16.688 331 27.699 331 32L331 87C331 90.7782 328.964 107.699 337.138 104.262C342.096 102.177 340 90.2959 340 86L340 29C340 25.556 341.327 9.1192 333.317 14.0471M33 14C29.8448 21.4463 31 30.0457 31 38L31 83C31 87.3992 28.4201 104.359 35.9606 103.534C42.4973 102.819 40 87.5053 40 83L40 38C40 30.0457 41.1552 21.4463 38 14L33 14z"/>
    <path style="fill:#4d0af9; stroke:none;" d="M34 14L35 15L34 14z"/>
    <path style="fill:#4e0cf5; stroke:none;" d="M35 14L36 15L35 14z"/>
    <path style="fill:#4d0af9; stroke:none;" d="M36 14L37 15L36 14M46 14L47 15L46 14M54 14L55 15L54 14z"/>
    <path style="fill:#4901ff; stroke:none;" d="M379 104L384 104C387.155 96.5537 386 87.9543 386 80L386 35C386 30.4947 388.497 15.1813 381.961 14.466C374.42 13.6409 377 30.6008 377 35L377 80C377 87.9543 375.845 96.5537 379 104z"/>
    <path style="fill:#4d0af9; stroke:none;" d="M32 15L33 16L32 15z"/>
    <path style="fill:#4e0cf5; stroke:none;" d="M38 15L39 16L38 15z"/>
    <path style="fill:#4a07f4; stroke:none;" d="M31 16L32 17L31 16M39 16L40 17L39 16z"/>
    <path style="fill:#4901ff; stroke:none;" d="M139.263 17.8511C134.279 19.6193 136 29.997 136 34L136 85C136 88.6492 134.357 102.702 141.787 100.149C146.835 98.414 145 88.0477 145 84L145 33C145 29.4468 146.615 15.2425 139.263 17.8511M243.317 19.0471C239.142 21.6156 241 31.8381 241 36L241 86C241 89.4175 240.157 103.582 247.683 98.9529C251.858 96.3844 250 86.162 250 82L250 32C250 28.5825 250.843 14.4175 243.317 19.0471z"/>
    <path style="fill:#4a07f4; stroke:none;" d="M136 20L137 21L136 20z"/>
    <path style="fill:#4901ff; stroke:none;" d="M273 94C281.219 93.1336 280 86.8185 280 80L280 42C280 37.838 281.858 27.6156 277.683 25.0471C269.898 20.258 271 35.5734 271 39L271 75C271 81.3645 269.988 88.2123 273 94M318 92L323 92C328.849 78.1962 325 56.8943 325 42C325 37.9876 326.901 27.1161 320.961 26.466C314.245 25.7311 316 37.0968 316 41C316 56.157 312.05 77.9571 318 92M3 27C-2.7477 40.5645 1 61.3686 1 76C1 79.9032 -0.755403 91.2689 5.96065 90.534C11.7374 89.9018 10 79.9064 10 76C10 61.3686 13.7477 40.5645 8 27L3 27z"/>
    <path style="fill:#4a07f4; stroke:none;" d="M4 27L5 28L4 27z"/>
    <path style="fill:#4e0cf5; stroke:none;" d="M5 27L6 28L5 27z"/>
    <path style="fill:#4a07f4; stroke:none;" d="M6 27L7 28L6 27z"/>
    <path style="fill:#4901ff; stroke:none;" d="M258.317 28.0471C254.537 30.3726 256 38.2767 256 42L256 81C256.007 84.4554 256.627 93.6787 262.683 89.9529C266.463 87.6274 265 79.7233 265 76L265 37C264.993 33.5446 264.373 24.3213 258.317 28.0471M349 91L354 91C359.748 77.4355 356 56.6314 356 42C356 38.0935 357.737 28.0982 351.961 27.466C345.245 26.7311 347 38.0968 347 42C347 56.6314 343.252 77.4355 349 91z"/>
    <path style="fill:#4a07f4; stroke:none;" d="M2 28L3 29L2 28M8 28L9 29L8 28z"/>
    <path style="fill:#4901ff; stroke:none;" d="M288.43 29.0471C284.793 31.3785 286 38.367 286 42C286 54.6635 285.848 67.3376 286.004 80C286.042 83.0672 286.968 92.6481 292.491 88.9529C296.245 86.4414 295 78.8164 295 75C295 62.3374 295.173 49.6612 294.996 37C294.951 33.7357 293.737 25.6449 288.43 29.0471z"/>
    <path style="fill:#4a07f4; stroke:none;" d="M1 29L2 30L1 29M9 29L10 30L9 29z"/>
    <path style="fill:#4901ff; stroke:none;" d="M78 30C72.6587 42.6055 76 61.4215 76 75C76 78.7308 74.6989 88.2192 80.9606 87.534C86.5521 86.9221 85 77.7966 85 74C85 60.6851 88.2395 42.3652 83 30L78 30z"/>
    <path style="fill:#4a07f4; stroke:none;" d="M79 30L79 31L82 31L79 30z"/>
    <path style="fill:#4901ff; stroke:none;" d="M185.039 31.1759C180.208 31.7785 181.002 38.6075 181 42L181 76C181.002 79.3992 180.344 87.5247 185.961 86.8241C190.792 86.2215 189.998 79.3925 190 76L190 42C189.998 38.6008 190.656 30.4753 185.039 31.1759z"/>
    <path style="fill:#4a07f4; stroke:none;" d="M77 31L78 32L77 31M83 31L84 32L83 31z"/>
    <path style="fill:#4901ff; stroke:none;" d="M92 32C89.4883 45.5291 90.9991 60.2665 91 74C91.0002 77.5986 89.8658 87.0091 95.9352 86.338C101.194 85.7565 99.9998 77.5917 100 74C100.001 60.2665 101.512 45.5291 99 32L92 32z"/>
    <path style="fill:#4a07f4; stroke:none;" d="M76 32L77 33L76 32M84 32L85 33L84 32z"/>
    <path style="fill:#4d0af9; stroke:none;" d="M93 32L94 33L93 32z"/>
    <path style="fill:#4a07f4; stroke:none;" d="M97 32L98 33L97 32z"/>
    <path style="fill:#4901ff; stroke:none;" d="M213.317 33.0471C209.852 35.1791 211 41.5959 211 45C211 56.2989 210.527 67.7119 211.019 78.9992C211.168 82.4133 213.245 87.6831 217.683 84.9529C221.148 82.8209 220 76.4041 220 73C220 61.7011 220.473 50.2881 219.981 39.0008C219.832 35.5867 217.755 30.3168 213.317 33.0471z"/>
    <path style="fill:#4d0af9; stroke:none;" d="M91 34L92 35L91 34z"/>
    <path style="fill:#4a07f4; stroke:none;" d="M99 34L100 35L99 34z"/>
    <path style="fill:#4901ff; stroke:none;" d="M18 39C14.2093 47.9459 15.9803 59.4199 16 69C16.0068 72.2909 15.4851 78.0356 20.0394 78.534C24.9255 79.0686 24.9763 73.3258 24.9992 70C25.0668 60.1769 26.8832 48.1643 23 39L18 39z"/>
    <path style="fill:#4a07f4; stroke:none;" d="M19 39L20 40L19 39z"/>
    <path style="fill:#4e0cf5; stroke:none;" d="M20 39L21 40L20 39z"/>
    <path style="fill:#4a07f4; stroke:none;" d="M21 39L22 40L21 39z"/>
    <path style="fill:#4901ff; stroke:none;" d="M364 79L369 79C372.791 70.0541 371.02 58.5801 371 49C370.993 45.7091 371.515 39.9644 366.961 39.466C362.074 38.9314 362.024 44.6742 362.001 48C361.933 57.8231 360.117 69.8357 364 79z"/>
    <path style="fill:#4a07f4; stroke:none;" d="M17 40L18 41L17 40M23 40L24 41L23 40M16 41L17 42L16 41M24 41L25 42L24 41z"/>
    <path style="fill:#4901ff; stroke:none;" d="M198.317 42.0471C193.392 45.0772 195.287 66.6824 196.148 71.9807C196.651 75.0739 199.408 77.9675 202.683 75.9529C207.608 72.9227 205.713 51.3176 204.852 46.0193C204.349 42.9261 201.592 40.0325 198.317 42.0471z"/>
    <path style="fill:#4a07f4; stroke:none;" d="M362 76L363 77L362 76M370 76L371 77L370 76M363 77L364 78L363 77M369 77L370 78L369 77M365 78L366 79L365 78z"/>
    <path style="fill:#4e0cf5; stroke:none;" d="M366 78L367 79L366 78z"/>
    <path style="fill:#4a07f4; stroke:none;" d="M367 78L368 79L367 78M286 86L287 87L286 86M294 86L295 87L294 86M347 88L348 89L347 88M355 88L356 89L355 88M316 89L317 90L316 89M324 89L325 90L324 89M348 89L349 90L348 89M354 89L355 90L354 89z"/>
    <path style="fill:#4d0af9; stroke:none;" d="M317 90L318 91L317 90M323 90L324 91L323 90z"/>
    <path style="fill:#4a07f4; stroke:none;" d="M350 90L350 91L353 91L350 90M319 91L320 92L319 91z"/>
    <path style="fill:#4d0af9; stroke:none;" d="M320 91L321 92L320 91z"/>
    <path style="fill:#4a07f4; stroke:none;" d="M321 91L322 92L321 91M272 92L273 93L272 92M275 93L276 94L275 93z"/>
    <path style="fill:#4e0cf5; stroke:none;" d="M377 101L378 102L377 101M385 101L386 102L385 101M378 102L379 103L378 102M384 102L385 103L384 102M380 103L380 104L383 104L380 103z"/>
    <path style="fill:#4a07f4; stroke:none;" d="M335 104L336 105L335 104M308 109L309 110L308 109M305 110L306 111L305 110M152 113L153 114L152 113M154 115L155 116L154 115z"/>
</svg>
